<svg width="17" height="17" viewBox="0 0 17 17" fill="none" xmlns="http://www.w3.org/2000/svg">
<g clip-path="url(#clip0_8_101)">
<path fill-rule="evenodd" clip-rule="evenodd" d="M13.9691 14.8942V3.62796H3.33945V14.8942H13.9691ZM2.45372 1.27499H14.8552C15.5889 1.27499 16.1838 1.90706 16.1838 2.68677V15.8632C16.1838 16.6429 15.5889 17.275 14.8552 17.275H2.45372C1.71989 17.275 1.125 16.6429 1.125 15.8632V2.68677C1.125 1.90706 1.71989 1.27499 2.45372 1.27499Z" fill="url(#paint0_linear_8_101)"/>
<path fill-rule="evenodd" clip-rule="evenodd" d="M4.90636 8.22766L5.90616 9.21053L9.1728 5.98088L10.3179 7.13897L5.90616 11.4393L3.94852 9.46286L4.90636 8.22766ZM12.2558 6.25376L7.86776 10.5311L8.99294 11.6279L13.3603 7.37061L12.2558 6.25376Z" fill="url(#paint1_linear_8_101)"/>
</g>
<defs>
<linearGradient id="paint0_linear_8_101" x1="8.65441" y1="1.27499" x2="8.65441" y2="17.275" gradientUnits="userSpaceOnUse">
<stop stop-color="#2FC7F7"/>
<stop offset="0.9999" stop-color="#3F9FEF"/>
<stop offset="1" stop-color="#409EEF"/>
</linearGradient>
<linearGradient id="paint1_linear_8_101" x1="8.6544" y1="5.98088" x2="8.6544" y2="11.6279" gradientUnits="userSpaceOnUse">
<stop stop-color="#2FC7F7"/>
<stop offset="0.9999" stop-color="#3F9FEF"/>
<stop offset="1" stop-color="#409EEF"/>
</linearGradient>
<clipPath id="clip0_8_101">
<rect width="17" height="17" fill="white"/>
</clipPath>
</defs>
</svg>
