<svg width="17" height="17" viewBox="0 0 17 17" fill="none" xmlns="http://www.w3.org/2000/svg">
<path fill-rule="evenodd" clip-rule="evenodd" d="M3.79919 0C2.80553 0 2 0.805534 2 1.79919V14.2008C2 15.1945 2.80553 16 3.79919 16H12.2008C13.1945 16 14 15.1945 14 14.2008V1.79919C14 0.805534 13.1945 0 12.2008 0H3.79919ZM4 2.4C4 2.17909 4.17909 2 4.4 2H11.6C11.8209 2 12 2.17909 12 2.4V5.6C12 5.82089 11.8209 6 11.6 6H4.4C4.17909 6 4 5.82089 4 5.6V2.4ZM4 8.4C4 8.17911 4.17909 8 4.4 8H5.6C5.82089 8 6 8.17911 6 8.4V8.94381C6 9.16471 5.82089 9.34381 5.6 9.34381H4.4C4.17909 9.34381 4 9.16471 4 8.94381V8.4ZM4.4 10C4.17909 10 4 10.1791 4 10.4V10.9438C4 11.1647 4.17909 11.3438 4.4 11.3438H5.6C5.82089 11.3438 6 11.1647 6 10.9438V10.4C6 10.1791 5.82089 10 5.6 10H4.4ZM4 12.4C4 12.1791 4.17909 12 4.4 12H5.6C5.82089 12 6 12.1791 6 12.4V12.9438C6 13.1647 5.82089 13.3438 5.6 13.3438H4.4C4.17909 13.3438 4 13.1647 4 12.9438V12.4ZM7.40922 8C7.18824 8 7.00922 8.17911 7.00922 8.4V8.94381C7.00922 9.16471 7.18824 9.34381 7.40922 9.34381H8.60922C8.83012 9.34381 9.00922 9.16471 9.00922 8.94381V8.4C9.00922 8.17911 8.83012 8 8.60922 8H7.40922ZM7.00922 10.4C7.00922 10.1791 7.18824 10 7.40922 10H8.60922C8.83012 10 9.00922 10.1791 9.00922 10.4V10.9438C9.00922 11.1647 8.83012 11.3438 8.60922 11.3438H7.40922C7.18824 11.3438 7.00922 11.1647 7.00922 10.9438V10.4ZM7.40922 12C7.18824 12 7.00922 12.1791 7.00922 12.4V12.9438C7.00922 13.1647 7.18824 13.3438 7.40922 13.3438H8.60922C8.83012 13.3438 9.00922 13.1647 9.00922 12.9438V12.4C9.00922 12.1791 8.83012 12 8.60922 12H7.40922ZM10.0183 8.4C10.0183 8.17911 10.1974 8 10.4183 8H11.6183C11.8392 8 12.0183 8.17911 12.0183 8.4V8.94381C12.0183 9.16471 11.8392 9.34381 11.6183 9.34381H10.4183C10.1974 9.34381 10.0183 9.16471 10.0183 8.94381V8.4ZM10.4183 10C10.1974 10 10.0183 10.1791 10.0183 10.4V10.9438C10.0183 11.1647 10.1974 11.3438 10.4183 11.3438H11.6183C11.8392 11.3438 12.0183 11.1647 12.0183 10.9438V10.4C12.0183 10.1791 11.8392 10 11.6183 10H10.4183ZM10.0183 12.4C10.0183 12.1791 10.1974 12 10.4183 12H11.6183C11.8392 12 12.0183 12.1791 12.0183 12.4V12.9438C12.0183 13.1647 11.8392 13.3438 11.6183 13.3438H10.4183C10.1974 13.3438 10.0183 13.1647 10.0183 12.9438V12.4Z" fill="url(#paint0_linear_8_74)"/>
<defs>
<linearGradient id="paint0_linear_8_74" x1="8" y1="0" x2="8" y2="16" gradientUnits="userSpaceOnUse">
<stop stop-color="#2FC7F7"/>
<stop offset="0.9999" stop-color="#3F9FEF"/>
<stop offset="1" stop-color="#409EEF"/>
</linearGradient>
</defs>
</svg>
