<svg width="17" height="17" viewBox="0 0 17 17" fill="none" xmlns="http://www.w3.org/2000/svg">
<path fill-rule="evenodd" clip-rule="evenodd" d="M1.68393 3H16.3162C16.6939 3 17 3.2924 17 3.65309C17 3.7262 16.9871 3.7988 16.962 3.86784L16.5199 5.08073C16.4241 5.34322 16.165 5.51911 15.8741 5.51911H2.12246C1.83086 5.51911 1.57136 5.34245 1.47618 5.07918L1.03764 3.86628C0.914372 3.52535 1.1038 3.15352 1.46073 3.03577C1.53253 3.01209 1.60797 3 1.68393 3ZM4.09395 7.65654H13.9062C14.2837 7.65654 14.59 7.94895 14.59 8.30965C14.59 8.38791 14.5752 8.46561 14.5464 8.53892L14.0703 9.75182C13.9702 10.0067 13.7151 10.1757 13.4301 10.1757H4.54474C4.25531 10.1757 3.99723 10.0016 3.9004 9.74101L3.4496 8.52812C3.32327 8.18818 3.50934 7.8148 3.86519 7.6941C3.93864 7.66923 4.01601 7.65654 4.09395 7.65654ZM7.14031 12.3276H10.8599C11.2375 12.3276 11.5436 12.6201 11.5436 12.9808C11.5436 13.0442 11.5339 13.1075 11.5147 13.1684L11.1339 14.3812C11.0472 14.6575 10.781 14.8468 10.4791 14.8468H7.56232C7.26783 14.8468 7.00643 14.6666 6.91353 14.3996L6.49145 13.1867C6.37234 12.8445 6.56627 12.4748 6.92462 12.361C6.99417 12.3389 7.06699 12.3276 7.14031 12.3276Z" fill="url(#paint0_linear_8_95)"/>
<defs>
<linearGradient id="paint0_linear_8_95" x1="9.00002" y1="3" x2="9.00002" y2="14.8468" gradientUnits="userSpaceOnUse">
<stop stop-color="#2FC7F7"/>
<stop offset="1" stop-color="#409EEF"/>
</linearGradient>
</defs>
</svg>
