<svg width="17" height="17" viewBox="0 0 17 17" fill="none" xmlns="http://www.w3.org/2000/svg">
<path fill-rule="evenodd" clip-rule="evenodd" d="M5.25815 7.1063C5.25815 5.12943 6.8608 3.5269 8.8376 3.5269C10.8145 3.5269 12.417 5.12943 12.417 7.1063C12.417 9.0832 10.8145 10.6858 8.8376 10.6858C6.8608 10.6858 5.25815 9.0832 5.25815 7.1063ZM9.1106 9.584V8.9646C9.809 8.8432 10.1916 8.3817 10.1916 7.8412C10.1916 7.2946 9.9001 6.9607 9.1775 6.7056C8.6613 6.51128 8.4487 6.38377 8.4487 6.18331C8.4487 6.01334 8.5762 5.84327 8.971 5.84327C9.3689 5.84327 9.6361 5.95905 9.8 6.03009C9.8161 6.03707 9.8314 6.04371 9.8455 6.04967L10.0216 5.36354C9.8212 5.26633 9.5479 5.1813 9.141 5.16318V4.62871H8.546V5.20565C7.8961 5.33325 7.5197 5.75219 7.5197 6.28656C7.5197 6.8757 7.963 7.1793 8.6128 7.3979C9.0621 7.5497 9.2563 7.6954 9.2563 7.9262C9.2563 8.1691 9.0195 8.3027 8.6735 8.3027C8.2787 8.3027 7.9204 8.1753 7.6654 8.0355L7.4833 8.746C7.714 8.8796 8.1087 8.9889 8.5156 9.0071V9.584H9.1106Z" fill="url(#paint0_linear_8_87)"/>
<path d="M11.7793 11.9H5.89474C5.73618 11.9 5.60654 12.0266 5.60654 12.1842V13.2113C5.60654 13.3679 5.73618 13.4965 5.89474 13.4965H11.7793C11.9389 13.4965 12.0685 13.3679 12.0685 13.2113V12.1842C12.0685 12.0266 11.9389 11.9 11.7793 11.9Z" fill="url(#paint1_linear_8_87)"/>
<path fill-rule="evenodd" clip-rule="evenodd" d="M3.3375 0.699997C2.78522 0.699997 2.3375 1.14772 2.3375 1.7V15.7C2.3375 16.2523 2.78522 16.7 3.3375 16.7H14.3375C14.8898 16.7 15.3375 16.2523 15.3375 15.7V1.7C15.3375 1.14772 14.8898 0.699997 14.3375 0.699997H3.3375ZM13.639 2.4H4.03626V15H13.639V2.4Z" fill="url(#paint2_linear_8_87)"/>
<defs>
<linearGradient id="paint0_linear_8_87" x1="8.8376" y1="3.5269" x2="8.8376" y2="10.6858" gradientUnits="userSpaceOnUse">
<stop stop-color="#2FC7F7"/>
<stop offset="0.9999" stop-color="#3F9FEF"/>
<stop offset="1" stop-color="#409EEF"/>
</linearGradient>
<linearGradient id="paint1_linear_8_87" x1="8.8375" y1="11.9" x2="8.8375" y2="13.4965" gradientUnits="userSpaceOnUse">
<stop stop-color="#2FC7F7"/>
<stop offset="0.9999" stop-color="#3F9FEF"/>
<stop offset="1" stop-color="#409EEF"/>
</linearGradient>
<linearGradient id="paint2_linear_8_87" x1="8.8375" y1="0.699997" x2="8.8375" y2="16.7" gradientUnits="userSpaceOnUse">
<stop stop-color="#2FC7F7"/>
<stop offset="0.9999" stop-color="#3F9FEF"/>
<stop offset="1" stop-color="#409EEF"/>
</linearGradient>
</defs>
</svg>
