<svg width="17" height="17" viewBox="0 0 17 17" fill="none" xmlns="http://www.w3.org/2000/svg">
<path fill-rule="evenodd" clip-rule="evenodd" d="M15.9333 15.7829C15.9333 16.4539 15.3819 17 14.7041 17H2.22926C1.55148 17 1 16.4539 1 15.7829V2.21718C1 1.54605 1.55148 1 2.22926 1H14.7041C15.3819 1 15.9333 1.54605 15.9333 2.21718V15.7829ZM3.77317 7.39995C3.4197 7.39995 3.13316 7.68653 3.13316 8.03997V10.9938C3.13316 11.3474 3.4197 11.6339 3.77317 11.6339H12.0932C12.4466 11.6339 12.7332 11.3474 12.7332 10.9938V8.03997C12.7332 7.68653 12.4466 7.39995 12.0932 7.39995H3.77317ZM7.14129 4.19998C6.69501 4.19998 6.33339 4.56169 6.33339 5.0079C6.33339 5.45409 6.69501 5.8158 7.14129 5.8158H11.9254C12.3716 5.8158 12.7333 5.45409 12.7333 5.0079C12.7333 4.56169 12.3716 4.19998 11.9254 4.19998H7.14129ZM4.19983 6.11997C4.78893 6.11997 5.2665 5.64241 5.2665 5.05331C5.2665 4.4642 4.78893 3.98663 4.19983 3.98663C3.61072 3.98663 3.13316 4.4642 3.13316 5.05331C3.13316 5.64241 3.61072 6.11997 4.19983 6.11997Z" fill="url(#paint0_linear_8_104)"/>
<defs>
<linearGradient id="paint0_linear_8_104" x1="8.4667" y1="1" x2="8.4667" y2="17" gradientUnits="userSpaceOnUse">
<stop stop-color="#2FC7F7"/>
<stop offset="1" stop-color="#409EEF"/>
</linearGradient>
</defs>
</svg>
