<svg width="17" height="17" viewBox="0 0 17 17" fill="none" xmlns="http://www.w3.org/2000/svg">
<path fill-rule="evenodd" clip-rule="evenodd" d="M3.7072 3.66756L4.15748 5.61263L15.4357 5.59174C15.6237 5.59255 15.8003 5.67972 15.9156 5.82688C16.0315 5.97484 16.0731 6.16678 16.0299 6.34913L14.8831 12.7172C14.8174 12.9922 14.5719 13.1866 14.2896 13.1881H5.20129C4.91896 13.1866 4.67344 12.9922 4.60786 12.7172L2.62201 4.42496H0.860801C0.521565 4.42496 0.246567 4.14994 0.246567 3.81072C0.246567 3.47149 0.521565 3.1965 0.860801 3.1965H3.11299C3.3961 3.19808 3.64083 3.39242 3.7072 3.66756ZM8.53585 15.44C8.53585 16.2989 7.83925 16.9955 6.97949 16.9955C6.12046 16.9955 5.42385 16.299 5.42385 15.44C5.42385 14.5802 6.12046 13.8836 6.97949 13.8836C7.83925 13.8836 8.53585 14.5802 8.53585 15.44ZM14.0231 15.44C14.0231 16.2989 13.3265 16.9955 12.4667 16.9955C11.6078 16.9955 10.9112 16.299 10.9112 15.44C10.9112 14.5802 11.6077 13.8836 12.4667 13.8836C13.3265 13.8836 14.0231 14.5802 14.0231 15.44Z" fill="url(#paint0_linear_8_82)"/>
<defs>
<linearGradient id="paint0_linear_8_82" x1="8.14656" y1="3.1965" x2="8.14656" y2="16.9955" gradientUnits="userSpaceOnUse">
<stop stop-color="#2FC7F7"/>
<stop offset="1" stop-color="#409EEF"/>
</linearGradient>
</defs>
</svg>
