<svg width="17" height="17" viewBox="0 0 17 17" fill="none" xmlns="http://www.w3.org/2000/svg">
<g clip-path="url(#clip0_8_80)">
<path fill-rule="evenodd" clip-rule="evenodd" d="M12.4477 11.4472C11.9084 10.8907 11.235 10.8907 10.6991 11.4472C10.2903 11.8709 9.9846 12.0073 9.58267 12.4381C9.47274 12.5566 9.37999 12.5817 9.24601 12.5028C8.9815 12.352 8.69982 12.2299 8.44561 12.0647C7.26043 11.2856 6.26763 10.2839 5.3882 9.15655C4.95192 8.59646 4.56372 7.99691 4.29233 7.32193C4.23737 7.1855 4.24767 7.09573 4.35416 6.98443C4.76296 6.57155 4.90037 6.42074 5.3023 5.99708C5.86225 5.40826 5.86225 4.71892 5.29886 4.12651C4.97938 3.78902 4.67048 3.32274 4.41005 2.95663C4.14966 2.59053 3.94537 2.15542 3.61215 1.81434C3.07281 1.26502 2.39951 1.26505 1.8636 1.81796C1.45137 2.24162 1.0563 2.67603 0.6372 3.09251C0.249014 3.47667 0.0531874 3.94702 0.0119637 4.49634C-0.0533063 5.39033 0.156245 6.23403 0.451679 7.05621C1.05629 8.75803 1.97698 10.2696 3.09344 11.6554C4.60153 13.5296 6.40161 15.0124 8.50744 16.0823C9.45557 16.5634 10.438 16.9332 11.5064 16.9942C12.2416 17.0373 12.8806 16.8434 13.3924 16.2439C13.7428 15.8346 14.1379 15.4612 14.5089 15.0698C15.0585 14.4882 15.062 13.7845 14.5158 13.21C13.863 12.5243 13.1039 12.1294 12.4477 11.4472ZM12.1688 8.36464L12.3209 8.33747C12.6527 8.27827 12.8636 7.93101 12.7707 7.59287C12.506 6.62934 12.0126 5.75675 11.3267 5.03693C10.5941 4.27133 9.70077 3.74055 8.71529 3.47946C8.38822 3.39279 8.06143 3.62196 8.01458 3.97116L7.993 4.13213C7.95271 4.4325 8.13699 4.71279 8.41792 4.78883C9.17262 4.99312 9.85771 5.40096 10.4197 5.98837C10.9472 6.53963 11.3257 7.21062 11.531 7.95052C11.6107 8.23792 11.8866 8.41501 12.1688 8.36464ZM13.6249 2.69962C12.3034 1.31857 10.6655 0.397113 8.85524 0.011872C8.53669 -0.0559132 8.22992 0.174066 8.18478 0.510587L8.16324 0.671209C8.12174 0.980766 8.31785 1.26985 8.61077 1.33293C10.1691 1.66866 11.5799 2.46494 12.718 3.65107C13.7905 4.772 14.5331 6.15726 14.8819 7.68347C14.9515 7.98796 15.2332 8.18508 15.5285 8.13241L15.6792 8.10552C16.0031 8.04772 16.2105 7.71536 16.1342 7.38139C15.7292 5.60928 14.8689 4.00298 13.6249 2.69962Z" fill="url(#paint0_linear_8_80)"/>
</g>
<defs>
<linearGradient id="paint0_linear_8_80" x1="8.075" y1="1.497e-08" x2="8.075" y2="17" gradientUnits="userSpaceOnUse">
<stop stop-color="#2FC7F7"/>
<stop offset="1" stop-color="#3F9FEF"/>
</linearGradient>
<clipPath id="clip0_8_80">
<rect width="17" height="17" fill="white"/>
</clipPath>
</defs>
</svg>
